<?xml version="1.0" encoding="utf-8"?>
<svg
   xmlns:svg="http://www.w3.org/2000/svg"
   xmlns="http://www.w3.org/2000/svg"
   version="1.1"
   viewBox="0 0 42 42">
  <g>
    <g transform="matrix(0.3946489,0,0,0.3946489,-27.161123,-25.339269)">
      <g transform="translate(0.74552538,-0.06212706)">
        <path d="m 71.3,85.6 v 63.9 c 0,1.8 0.9,3.5 2.5,4.5 l 15.4,10 c 1.8,1.1 4.2,-0.1 4.2,-2.3 V 68.3 c 0,-2.4 -2.8,-3.6 -4.5,-1.9 l -16,15.3 c -1,1 -1.6,2.4 -1.6,3.9 z"/>
        <path d="m 170.9,85.6 v 63.9 c 0,1.8 -0.9,3.5 -2.5,4.5 L 153,164 c -1.8,1.1 -4.2,-0.1 -4.2,-2.3 V 68.3 c 0,-2.4 2.8,-3.6 4.5,-1.9 l 15.9,15.2 c 1.2,1.1 1.7,2.5 1.7,4 z"/>
        <path d="m 99.2,119.8 v 40.4 c 0,1.1 0.7,2.2 1.8,2.8 l 11.7,6.3 c 1.3,0.8 3.1,-0.1 3.1,-1.4 V 109 c 0,-1.5 -2.2,-2.3 -3.4,-1.2 l -12,9.7 c -0.8,0.5 -1.2,1.4 -1.2,2.3 z"/>
        <path d="m 142.6,119.8 v 40.4 c 0,1.1 -0.8,2.2 -1.9,2.8 l -12,6.3 c -1.4,0.8 -3.2,-0.1 -3.2,-1.4 V 109 c 0,-1.5 2.2,-2.3 3.5,-1.2 l 12.3,9.7 c 0.9,0.5 1.3,1.4 1.3,2.3 z"/>
      </g>
    </g>
  </g>
</svg>
